<?xml version="1.0" encoding="utf-8" standalone="no"?>
<!DOCTYPE svg PUBLIC "-//W3C//DTD SVG 1.1//EN"
  "http://www.w3.org/Graphics/SVG/1.1/DTD/svg11.dtd">
<svg xmlns:xlink="http://www.w3.org/1999/xlink" width="464.812013pt" height="457.92pt" viewBox="0 0 464.812013 457.92" xmlns="http://www.w3.org/2000/svg" version="1.1">
 <metadata>
  <rdf:RDF xmlns:dc="http://purl.org/dc/elements/1.1/" xmlns:cc="http://creativecommons.org/ns#" xmlns:rdf="http://www.w3.org/1999/02/22-rdf-syntax-ns#">
   <cc:Work>
    <dc:type rdf:resource="http://purl.org/dc/dcmitype/StillImage"/>
    <dc:date>2025-03-29T14:34:59.434520</dc:date>
    <dc:format>image/svg+xml</dc:format>
    <dc:creator>
     <cc:Agent>
      <dc:title>Matplotlib v3.10.1, https://matplotlib.org/</dc:title>
     </cc:Agent>
    </dc:creator>
   </cc:Work>
  </rdf:RDF>
 </metadata>
 <defs>
  <style type="text/css">*{stroke-linejoin: round; stroke-linecap: butt}</style>
 </defs>
 <g id="figure_1">
  <g id="patch_1">
   <path d="M 0 457.92 
L 464.812013 457.92 
L 464.812013 0 
L 0 0 
L 0 457.92 
z
" style="fill: none"/>
  </g>
  <g id="patch_2">
   <path d="M 14.092013 450.72 
L 457.612013 450.72 
L 457.612013 7.2 
L 14.092013 7.2 
L 14.092013 450.72 
z
" style="fill: none"/>
  </g>
  <g id="pane3d_1">
   <g id="patch_3">
    <path d="M 439.251247 313.630853 
L 241.845527 215.46306 
L 241.845527 38.692881 
L 448.265207 128.162195 
" style="fill: none; opacity: 0.5; stroke: #f2f2f2; stroke-linejoin: miter"/>
   </g>
  </g>
  <g id="pane3d_2">
   <g id="patch_4">
    <path d="M 44.439806 313.630853 
L 241.845527 215.46306 
L 241.845527 38.692881 
L 35.425847 128.162195 
" style="fill: none; opacity: 0.5; stroke: #e6e6e6; stroke-linejoin: miter"/>
   </g>
  </g>
  <g id="pane3d_3">
   <g id="patch_5">
    <path d="M 241.845527 426.874329 
L 439.251247 313.630853 
L 241.845527 215.46306 
L 44.439806 313.630853 
" style="fill: none; opacity: 0.5; stroke: #ececec; stroke-linejoin: miter"/>
   </g>
  </g>
  <g id="axis3d_1">
   <g id="line2d_1">
    <path d="M 439.251247 313.630853 
L 241.845527 426.874329 
" style="fill: none; stroke: #000000; stroke-width: 0.8; stroke-linecap: square"/>
   </g>
   <g id="xtick_1">
    <g id="line2d_2">
     <path d="M 263.564551 412.481685 
L 268.668825 415.36067 
" style="fill: none; stroke: #000000; stroke-width: 0.8; stroke-linecap: square"/>
    </g>
    <g id="text_1">
     <!-- 0.030 -->
     <g transform="translate(258.291136 438.647715) scale(0.14 -0.14)">
      <defs>
       <path id="ArialMT-30" d="M 266 2259 
Q 266 3072 433 3567 
Q 600 4063 929 4331 
Q 1259 4600 1759 4600 
Q 2128 4600 2406 4451 
Q 2684 4303 2865 4023 
Q 3047 3744 3150 3342 
Q 3253 2941 3253 2259 
Q 3253 1453 3087 958 
Q 2922 463 2592 192 
Q 2263 -78 1759 -78 
Q 1097 -78 719 397 
Q 266 969 266 2259 
z
M 844 2259 
Q 844 1131 1108 757 
Q 1372 384 1759 384 
Q 2147 384 2411 759 
Q 2675 1134 2675 2259 
Q 2675 3391 2411 3762 
Q 2147 4134 1753 4134 
Q 1366 4134 1134 3806 
Q 844 3388 844 2259 
z
" transform="scale(0.015625)"/>
       <path id="ArialMT-2e" d="M 581 0 
L 581 641 
L 1222 641 
L 1222 0 
L 581 0 
z
" transform="scale(0.015625)"/>
       <path id="ArialMT-33" d="M 269 1209 
L 831 1284 
Q 928 806 1161 595 
Q 1394 384 1728 384 
Q 2125 384 2398 659 
Q 2672 934 2672 1341 
Q 2672 1728 2419 1979 
Q 2166 2231 1775 2231 
Q 1616 2231 1378 2169 
L 1441 2663 
Q 1497 2656 1531 2656 
Q 1891 2656 2178 2843 
Q 2466 3031 2466 3422 
Q 2466 3731 2256 3934 
Q 2047 4138 1716 4138 
Q 1388 4138 1169 3931 
Q 950 3725 888 3313 
L 325 3413 
Q 428 3978 793 4289 
Q 1159 4600 1703 4600 
Q 2078 4600 2393 4439 
Q 2709 4278 2876 4000 
Q 3044 3722 3044 3409 
Q 3044 3113 2884 2869 
Q 2725 2625 2413 2481 
Q 2819 2388 3044 2092 
Q 3269 1797 3269 1353 
Q 3269 753 2831 336 
Q 2394 -81 1725 -81 
Q 1122 -81 723 278 
Q 325 638 269 1209 
z
" transform="scale(0.015625)"/>
      </defs>
      <use xlink:href="#ArialMT-30"/>
      <use xlink:href="#ArialMT-2e" transform="translate(55.615234 0)"/>
      <use xlink:href="#ArialMT-30" transform="translate(83.398438 0)"/>
      <use xlink:href="#ArialMT-33" transform="translate(139.013672 0)"/>
      <use xlink:href="#ArialMT-30" transform="translate(194.628906 0)"/>
     </g>
    </g>
   </g>
   <g id="xtick_2">
    <g id="line2d_3">
     <path d="M 286.590383 399.288929 
L 291.693559 402.1198 
" style="fill: none; stroke: #000000; stroke-width: 0.8; stroke-linecap: square"/>
    </g>
    <g id="text_2">
     <!-- 0.029 -->
     <g transform="translate(281.261649 425.292099) scale(0.14 -0.14)">
      <defs>
       <path id="ArialMT-32" d="M 3222 541 
L 3222 0 
L 194 0 
Q 188 203 259 391 
Q 375 700 629 1000 
Q 884 1300 1366 1694 
Q 2113 2306 2375 2664 
Q 2638 3022 2638 3341 
Q 2638 3675 2398 3904 
Q 2159 4134 1775 4134 
Q 1369 4134 1125 3890 
Q 881 3647 878 3216 
L 300 3275 
Q 359 3922 746 4261 
Q 1134 4600 1788 4600 
Q 2447 4600 2831 4234 
Q 3216 3869 3216 3328 
Q 3216 3053 3103 2787 
Q 2991 2522 2730 2228 
Q 2469 1934 1863 1422 
Q 1356 997 1212 845 
Q 1069 694 975 541 
L 3222 541 
z
" transform="scale(0.015625)"/>
       <path id="ArialMT-39" d="M 350 1059 
L 891 1109 
Q 959 728 1153 556 
Q 1347 384 1650 384 
Q 1909 384 2104 503 
Q 2300 622 2425 820 
Q 2550 1019 2634 1356 
Q 2719 1694 2719 2044 
Q 2719 2081 2716 2156 
Q 2547 1888 2255 1720 
Q 1963 1553 1622 1553 
Q 1053 1553 659 1965 
Q 266 2378 266 3053 
Q 266 3750 677 4175 
Q 1088 4600 1706 4600 
Q 2153 4600 2523 4359 
Q 2894 4119 3086 3673 
Q 3278 3228 3278 2384 
Q 3278 1506 3087 986 
Q 2897 466 2520 194 
Q 2144 -78 1638 -78 
Q 1100 -78 759 220 
Q 419 519 350 1059 
z
M 2653 3081 
Q 2653 3566 2395 3850 
Q 2138 4134 1775 4134 
Q 1400 4134 1122 3828 
Q 844 3522 844 3034 
Q 844 2597 1108 2323 
Q 1372 2050 1759 2050 
Q 2150 2050 2401 2323 
Q 2653 2597 2653 3081 
z
" transform="scale(0.015625)"/>
      </defs>
      <use xlink:href="#ArialMT-30"/>
      <use xlink:href="#ArialMT-2e" transform="translate(55.615234 0)"/>
      <use xlink:href="#ArialMT-30" transform="translate(83.398438 0)"/>
      <use xlink:href="#ArialMT-32" transform="translate(139.013672 0)"/>
      <use xlink:href="#ArialMT-39" transform="translate(194.628906 0)"/>
     </g>
    </g>
   </g>
   <g id="xtick_3">
    <g id="line2d_4">
     <path d="M 309.23335 386.315536 
L 314.334758 389.099491 
" style="fill: none; stroke: #000000; stroke-width: 0.8; stroke-linecap: square"/>
    </g>
    <g id="text_3">
     <!-- 0.029 -->
     <g transform="translate(303.849435 412.159008) scale(0.14 -0.14)">
      <use xlink:href="#ArialMT-30"/>
      <use xlink:href="#ArialMT-2e" transform="translate(55.615234 0)"/>
      <use xlink:href="#ArialMT-30" transform="translate(83.398438 0)"/>
      <use xlink:href="#ArialMT-32" transform="translate(139.013672 0)"/>
      <use xlink:href="#ArialMT-39" transform="translate(194.628906 0)"/>
     </g>
    </g>
   </g>
   <g id="xtick_4">
    <g id="line2d_5">
     <path d="M 331.502924 373.556081 
L 336.601926 376.294275 
" style="fill: none; stroke: #000000; stroke-width: 0.8; stroke-linecap: square"/>
    </g>
    <g id="text_4">
     <!-- 0.028 -->
     <g transform="translate(326.063981 399.242929) scale(0.14 -0.14)">
      <defs>
       <path id="ArialMT-38" d="M 1131 2484 
Q 781 2613 612 2850 
Q 444 3088 444 3419 
Q 444 3919 803 4259 
Q 1163 4600 1759 4600 
Q 2359 4600 2725 4251 
Q 3091 3903 3091 3403 
Q 3091 3084 2923 2848 
Q 2756 2613 2416 2484 
Q 2838 2347 3058 2040 
Q 3278 1734 3278 1309 
Q 3278 722 2862 322 
Q 2447 -78 1769 -78 
Q 1091 -78 675 323 
Q 259 725 259 1325 
Q 259 1772 486 2073 
Q 713 2375 1131 2484 
z
M 1019 3438 
Q 1019 3113 1228 2906 
Q 1438 2700 1772 2700 
Q 2097 2700 2305 2904 
Q 2513 3109 2513 3406 
Q 2513 3716 2298 3927 
Q 2084 4138 1766 4138 
Q 1444 4138 1231 3931 
Q 1019 3725 1019 3438 
z
M 838 1322 
Q 838 1081 952 856 
Q 1066 631 1291 507 
Q 1516 384 1775 384 
Q 2178 384 2440 643 
Q 2703 903 2703 1303 
Q 2703 1709 2433 1975 
Q 2163 2241 1756 2241 
Q 1359 2241 1098 1978 
Q 838 1716 838 1322 
z
" transform="scale(0.015625)"/>
      </defs>
      <use xlink:href="#ArialMT-30"/>
      <use xlink:href="#ArialMT-2e" transform="translate(55.615234 0)"/>
      <use xlink:href="#ArialMT-30" transform="translate(83.398438 0)"/>
      <use xlink:href="#ArialMT-32" transform="translate(139.013672 0)"/>
      <use xlink:href="#ArialMT-38" transform="translate(194.628906 0)"/>
     </g>
    </g>
   </g>
   <g id="xtick_5">
    <g id="line2d_6">
     <path d="M 353.408264 361.005315 
L 358.504256 363.698868 
" style="fill: none; stroke: #000000; stroke-width: 0.8; stroke-linecap: square"/>
    </g>
    <g id="text_5">
     <!-- 0.027 -->
     <g transform="translate(347.914463 386.538525) scale(0.14 -0.14)">
      <defs>
       <path id="ArialMT-37" d="M 303 3981 
L 303 4522 
L 3269 4522 
L 3269 4084 
Q 2831 3619 2401 2847 
Q 1972 2075 1738 1259 
Q 1569 684 1522 0 
L 944 0 
Q 953 541 1156 1306 
Q 1359 2072 1739 2783 
Q 2119 3494 2547 3981 
L 303 3981 
z
" transform="scale(0.015625)"/>
      </defs>
      <use xlink:href="#ArialMT-30"/>
      <use xlink:href="#ArialMT-2e" transform="translate(55.615234 0)"/>
      <use xlink:href="#ArialMT-30" transform="translate(83.398438 0)"/>
      <use xlink:href="#ArialMT-32" transform="translate(139.013672 0)"/>
      <use xlink:href="#ArialMT-37" transform="translate(194.628906 0)"/>
     </g>
    </g>
   </g>
   <g id="xtick_6">
    <g id="line2d_7">
     <path d="M 374.958234 348.658159 
L 380.050642 351.308155 
" style="fill: none; stroke: #000000; stroke-width: 0.8; stroke-linecap: square"/>
    </g>
    <g id="text_6">
     <!-- 0.026 -->
     <g transform="translate(369.409757 374.040636) scale(0.14 -0.14)">
      <defs>
       <path id="ArialMT-36" d="M 3184 3459 
L 2625 3416 
Q 2550 3747 2413 3897 
Q 2184 4138 1850 4138 
Q 1581 4138 1378 3988 
Q 1113 3794 959 3422 
Q 806 3050 800 2363 
Q 1003 2672 1297 2822 
Q 1591 2972 1913 2972 
Q 2475 2972 2870 2558 
Q 3266 2144 3266 1488 
Q 3266 1056 3080 686 
Q 2894 316 2569 119 
Q 2244 -78 1831 -78 
Q 1128 -78 684 439 
Q 241 956 241 2144 
Q 241 3472 731 4075 
Q 1159 4600 1884 4600 
Q 2425 4600 2770 4297 
Q 3116 3994 3184 3459 
z
M 888 1484 
Q 888 1194 1011 928 
Q 1134 663 1356 523 
Q 1578 384 1822 384 
Q 2178 384 2434 671 
Q 2691 959 2691 1453 
Q 2691 1928 2437 2201 
Q 2184 2475 1800 2475 
Q 1419 2475 1153 2201 
Q 888 1928 888 1484 
z
" transform="scale(0.015625)"/>
      </defs>
      <use xlink:href="#ArialMT-30"/>
      <use xlink:href="#ArialMT-2e" transform="translate(55.615234 0)"/>
      <use xlink:href="#ArialMT-30" transform="translate(83.398438 0)"/>
      <use xlink:href="#ArialMT-32" transform="translate(139.013672 0)"/>
      <use xlink:href="#ArialMT-36" transform="translate(194.628906 0)"/>
     </g>
    </g>
   </g>
   <g id="xtick_7">
    <g id="line2d_8">
     <path d="M 396.161413 336.5097 
L 401.249689 339.117185 
" style="fill: none; stroke: #000000; stroke-width: 0.8; stroke-linecap: square"/>
    </g>
    <g id="text_7">
     <!-- 0.026 -->
     <g transform="translate(390.558455 361.744268) scale(0.14 -0.14)">
      <use xlink:href="#ArialMT-30"/>
      <use xlink:href="#ArialMT-2e" transform="translate(55.615234 0)"/>
      <use xlink:href="#ArialMT-30" transform="translate(83.398438 0)"/>
      <use xlink:href="#ArialMT-32" transform="translate(139.013672 0)"/>
      <use xlink:href="#ArialMT-36" transform="translate(194.628906 0)"/>
     </g>
    </g>
   </g>
   <g id="xtick_8">
    <g id="line2d_9">
     <path d="M 417.026105 324.555178 
L 422.109731 327.121168 
" style="fill: none; stroke: #000000; stroke-width: 0.8; stroke-linecap: square"/>
    </g>
    <g id="text_8">
     <!-- 0.025 -->
     <g transform="translate(411.368871 349.644583) scale(0.14 -0.14)">
      <defs>
       <path id="ArialMT-35" d="M 266 1200 
L 856 1250 
Q 922 819 1161 601 
Q 1400 384 1738 384 
Q 2144 384 2425 690 
Q 2706 997 2706 1503 
Q 2706 1984 2436 2262 
Q 2166 2541 1728 2541 
Q 1456 2541 1237 2417 
Q 1019 2294 894 2097 
L 366 2166 
L 809 4519 
L 3088 4519 
L 3088 3981 
L 1259 3981 
L 1013 2750 
Q 1425 3038 1878 3038 
Q 2478 3038 2890 2622 
Q 3303 2206 3303 1553 
Q 3303 931 2941 478 
Q 2500 -78 1738 -78 
Q 1113 -78 717 272 
Q 322 622 266 1200 
z
" transform="scale(0.015625)"/>
      </defs>
      <use xlink:href="#ArialMT-30"/>
      <use xlink:href="#ArialMT-2e" transform="translate(55.615234 0)"/>
      <use xlink:href="#ArialMT-30" transform="translate(83.398438 0)"/>
      <use xlink:href="#ArialMT-32" transform="translate(139.013672 0)"/>
      <use xlink:href="#ArialMT-35" transform="translate(194.628906 0)"/>
     </g>
    </g>
   </g>
   <g id="text_9">
    <!-- Droop (p.u.) -->
    <g transform="translate(341.74119 439.096993) rotate(-29.841106) scale(0.16 -0.16)">
     <defs>
      <path id="ArialMT-44" d="M 494 0 
L 494 4581 
L 2072 4581 
Q 2606 4581 2888 4516 
Q 3281 4425 3559 4188 
Q 3922 3881 4101 3404 
Q 4281 2928 4281 2316 
Q 4281 1794 4159 1391 
Q 4038 988 3847 723 
Q 3656 459 3429 307 
Q 3203 156 2883 78 
Q 2563 0 2147 0 
L 494 0 
z
M 1100 541 
L 2078 541 
Q 2531 541 2789 625 
Q 3047 709 3200 863 
Q 3416 1078 3536 1442 
Q 3656 1806 3656 2325 
Q 3656 3044 3420 3430 
Q 3184 3816 2847 3947 
Q 2603 4041 2063 4041 
L 1100 4041 
L 1100 541 
z
" transform="scale(0.015625)"/>
      <path id="ArialMT-72" d="M 416 0 
L 416 3319 
L 922 3319 
L 922 2816 
Q 1116 3169 1280 3281 
Q 1444 3394 1641 3394 
Q 1925 3394 2219 3213 
L 2025 2691 
Q 1819 2813 1613 2813 
Q 1428 2813 1281 2702 
Q 1134 2591 1072 2394 
Q 978 2094 978 1738 
L 978 0 
L 416 0 
z
" transform="scale(0.015625)"/>
      <path id="ArialMT-6f" d="M 213 1659 
Q 213 2581 725 3025 
Q 1153 3394 1769 3394 
Q 2453 3394 2887 2945 
Q 3322 2497 3322 1706 
Q 3322 1066 3130 698 
Q 2938 331 2570 128 
Q 2203 -75 1769 -75 
Q 1072 -75 642 372 
Q 213 819 213 1659 
z
M 791 1659 
Q 791 1022 1069 705 
Q 1347 388 1769 388 
Q 2188 388 2466 706 
Q 2744 1025 2744 1678 
Q 2744 2294 2464 2611 
Q 2184 2928 1769 2928 
Q 1347 2928 1069 2612 
Q 791 2297 791 1659 
z
" transform="scale(0.015625)"/>
      <path id="ArialMT-70" d="M 422 -1272 
L 422 3319 
L 934 3319 
L 934 2888 
Q 1116 3141 1344 3267 
Q 1572 3394 1897 3394 
Q 2322 3394 2647 3175 
Q 2972 2956 3137 2557 
Q 3303 2159 3303 1684 
Q 3303 1175 3120 767 
Q 2938 359 2589 142 
Q 2241 -75 1856 -75 
Q 1575 -75 1351 44 
Q 1128 163 984 344 
L 984 -1272 
L 422 -1272 
z
M 931 1641 
Q 931 1000 1190 694 
Q 1450 388 1819 388 
Q 2194 388 2461 705 
Q 2728 1022 2728 1688 
Q 2728 2322 2467 2637 
Q 2206 2953 1844 2953 
Q 1484 2953 1207 2617 
Q 931 2281 931 1641 
z
" transform="scale(0.015625)"/>
      <path id="ArialMT-20" transform="scale(0.015625)"/>
      <path id="ArialMT-28" d="M 1497 -1347 
Q 1031 -759 709 28 
Q 388 816 388 1659 
Q 388 2403 628 3084 
Q 909 3875 1497 4659 
L 1900 4659 
Q 1522 4009 1400 3731 
Q 1209 3300 1100 2831 
Q 966 2247 966 1656 
Q 966 153 1900 -1347 
L 1497 -1347 
z
" transform="scale(0.015625)"/>
      <path id="ArialMT-75" d="M 2597 0 
L 2597 488 
Q 2209 -75 1544 -75 
Q 1250 -75 995 37 
Q 741 150 617 320 
Q 494 491 444 738 
Q 409 903 409 1263 
L 409 3319 
L 972 3319 
L 972 1478 
Q 972 1038 1006 884 
Q 1059 663 1231 536 
Q 1403 409 1656 409 
Q 1909 409 2131 539 
Q 2353 669 2445 892 
Q 2538 1116 2538 1541 
L 2538 3319 
L 3100 3319 
L 3100 0 
L 2597 0 
z
" transform="scale(0.015625)"/>
      <path id="ArialMT-29" d="M 791 -1347 
L 388 -1347 
Q 1322 153 1322 1656 
Q 1322 2244 1188 2822 
Q 1081 3291 891 3722 
Q 769 4003 388 4659 
L 791 4659 
Q 1378 3875 1659 3084 
Q 1900 2403 1900 1659 
Q 1900 816 1576 28 
Q 1253 -759 791 -1347 
z
" transform="scale(0.015625)"/>
     </defs>
     <use xlink:href="#ArialMT-44"/>
     <use xlink:href="#ArialMT-72" transform="translate(72.216797 0)"/>
     <use xlink:href="#ArialMT-6f" transform="translate(105.517578 0)"/>
     <use xlink:href="#ArialMT-6f" transform="translate(161.132812 0)"/>
     <use xlink:href="#ArialMT-70" transform="translate(216.748047 0)"/>
     <use xlink:href="#ArialMT-20" transform="translate(272.363281 0)"/>
     <use xlink:href="#ArialMT-28" transform="translate(300.146484 0)"/>
     <use xlink:href="#ArialMT-70" transform="translate(333.447266 0)"/>
     <use xlink:href="#ArialMT-2e" transform="translate(389.0625 0)"/>
     <use xlink:href="#ArialMT-75" transform="translate(416.845703 0)"/>
     <use xlink:href="#ArialMT-2e" transform="translate(472.460938 0)"/>
     <use xlink:href="#ArialMT-29" transform="translate(500.244141 0)"/>
    </g>
   </g>
  </g>
  <g id="axis3d_2">
   <g id="line2d_10">
    <path d="M 44.439806 313.630853 
L 241.845527 426.874329 
" style="fill: none; stroke: #000000; stroke-width: 0.8; stroke-linecap: square"/>
   </g>
   <g id="xtick_9">
    <g id="line2d_11">
     <path d="M 234.333833 420.621841 
L 229.229234 423.530715 
" style="fill: none; stroke: #000000; stroke-width: 0.8; stroke-linecap: square"/>
    </g>
    <g id="text_10">
     <!-- 2 -->
     <g transform="translate(218.165546 446.888591) scale(0.14 -0.14)">
      <use xlink:href="#ArialMT-32"/>
     </g>
    </g>
   </g>
   <g id="xtick_10">
    <g id="line2d_12">
     <path d="M 198.093763 399.857925 
L 192.990525 402.690864 
" style="fill: none; stroke: #000000; stroke-width: 0.8; stroke-linecap: square"/>
    </g>
    <g id="text_11">
     <!-- 4 -->
     <g transform="translate(182.012126 425.86811) scale(0.14 -0.14)">
      <defs>
       <path id="ArialMT-34" d="M 2069 0 
L 2069 1097 
L 81 1097 
L 81 1613 
L 2172 4581 
L 2631 4581 
L 2631 1613 
L 3250 1613 
L 3250 1097 
L 2631 1097 
L 2631 0 
L 2069 0 
z
M 2069 1613 
L 2069 3678 
L 634 1613 
L 2069 1613 
z
" transform="scale(0.015625)"/>
      </defs>
      <use xlink:href="#ArialMT-34"/>
     </g>
    </g>
   </g>
   <g id="xtick_11">
    <g id="line2d_13">
     <path d="M 162.792796 379.632073 
L 157.692566 382.392011 
" style="fill: none; stroke: #000000; stroke-width: 0.8; stroke-linecap: square"/>
    </g>
    <g id="text_12">
     <!-- 6 -->
     <g transform="translate(146.797473 405.393451) scale(0.14 -0.14)">
      <use xlink:href="#ArialMT-36"/>
     </g>
    </g>
   </g>
   <g id="xtick_12">
    <g id="line2d_14">
     <path d="M 128.394897 359.923638 
L 123.299194 362.613361 
" style="fill: none; stroke: #000000; stroke-width: 0.8; stroke-linecap: square"/>
    </g>
    <g id="text_13">
     <!-- 8 -->
     <g transform="translate(112.485491 385.443627) scale(0.14 -0.14)">
      <use xlink:href="#ArialMT-38"/>
     </g>
    </g>
   </g>
   <g id="xtick_13">
    <g id="line2d_15">
     <path d="M 94.86585 340.713015 
L 89.776076 343.33517 
" style="fill: none; stroke: #000000; stroke-width: 0.8; stroke-linecap: square"/>
    </g>
    <g id="text_14">
     <!-- 10 -->
     <g transform="translate(75.149256 365.998714) scale(0.14 -0.14)">
      <defs>
       <path id="ArialMT-31" d="M 2384 0 
L 1822 0 
L 1822 3584 
Q 1619 3391 1289 3197 
Q 959 3003 697 2906 
L 697 3450 
Q 1169 3672 1522 3987 
Q 1875 4303 2022 4600 
L 2384 4600 
L 2384 0 
z
" transform="scale(0.015625)"/>
      </defs>
      <use xlink:href="#ArialMT-31"/>
      <use xlink:href="#ArialMT-30" transform="translate(55.615234 0)"/>
     </g>
    </g>
   </g>
   <g id="xtick_14">
    <g id="line2d_16">
     <path d="M 62.173145 321.981579 
L 57.090595 324.538679 
" style="fill: none; stroke: #000000; stroke-width: 0.8; stroke-linecap: square"/>
    </g>
    <g id="text_15">
     <!-- 12 -->
     <g transform="translate(42.541525 347.039783) scale(0.14 -0.14)">
      <use xlink:href="#ArialMT-31"/>
      <use xlink:href="#ArialMT-32" transform="translate(55.615234 0)"/>
     </g>
    </g>
   </g>
   <g id="text_16">
    <!-- Damping (p.u.) -->
    <g transform="translate(59.03752 391.53362) rotate(-330.158894) scale(0.16 -0.16)">
     <defs>
      <path id="ArialMT-61" d="M 2588 409 
Q 2275 144 1986 34 
Q 1697 -75 1366 -75 
Q 819 -75 525 192 
Q 231 459 231 875 
Q 231 1119 342 1320 
Q 453 1522 633 1644 
Q 813 1766 1038 1828 
Q 1203 1872 1538 1913 
Q 2219 1994 2541 2106 
Q 2544 2222 2544 2253 
Q 2544 2597 2384 2738 
Q 2169 2928 1744 2928 
Q 1347 2928 1158 2789 
Q 969 2650 878 2297 
L 328 2372 
Q 403 2725 575 2942 
Q 747 3159 1072 3276 
Q 1397 3394 1825 3394 
Q 2250 3394 2515 3294 
Q 2781 3194 2906 3042 
Q 3031 2891 3081 2659 
Q 3109 2516 3109 2141 
L 3109 1391 
Q 3109 606 3145 398 
Q 3181 191 3288 0 
L 2700 0 
Q 2613 175 2588 409 
z
M 2541 1666 
Q 2234 1541 1622 1453 
Q 1275 1403 1131 1340 
Q 988 1278 909 1158 
Q 831 1038 831 891 
Q 831 666 1001 516 
Q 1172 366 1500 366 
Q 1825 366 2078 508 
Q 2331 650 2450 897 
Q 2541 1088 2541 1459 
L 2541 1666 
z
" transform="scale(0.015625)"/>
      <path id="ArialMT-6d" d="M 422 0 
L 422 3319 
L 925 3319 
L 925 2853 
Q 1081 3097 1340 3245 
Q 1600 3394 1931 3394 
Q 2300 3394 2536 3241 
Q 2772 3088 2869 2813 
Q 3263 3394 3894 3394 
Q 4388 3394 4653 3120 
Q 4919 2847 4919 2278 
L 4919 0 
L 4359 0 
L 4359 2091 
Q 4359 2428 4304 2576 
Q 4250 2725 4106 2815 
Q 3963 2906 3769 2906 
Q 3419 2906 3187 2673 
Q 2956 2441 2956 1928 
L 2956 0 
L 2394 0 
L 2394 2156 
Q 2394 2531 2256 2718 
Q 2119 2906 1806 2906 
Q 1569 2906 1367 2781 
Q 1166 2656 1075 2415 
Q 984 2175 984 1722 
L 984 0 
L 422 0 
z
" transform="scale(0.015625)"/>
      <path id="ArialMT-69" d="M 425 3934 
L 425 4581 
L 988 4581 
L 988 3934 
L 425 3934 
z
M 425 0 
L 425 3319 
L 988 3319 
L 988 0 
L 425 0 
z
" transform="scale(0.015625)"/>
      <path id="ArialMT-6e" d="M 422 0 
L 422 3319 
L 928 3319 
L 928 2847 
Q 1294 3394 1984 3394 
Q 2284 3394 2536 3286 
Q 2788 3178 2913 3003 
Q 3038 2828 3088 2588 
Q 3119 2431 3119 2041 
L 3119 0 
L 2556 0 
L 2556 2019 
Q 2556 2363 2490 2533 
Q 2425 2703 2258 2804 
Q 2091 2906 1866 2906 
Q 1506 2906 1245 2678 
Q 984 2450 984 1813 
L 984 0 
L 422 0 
z
" transform="scale(0.015625)"/>
      <path id="ArialMT-67" d="M 319 -275 
L 866 -356 
Q 900 -609 1056 -725 
Q 1266 -881 1628 -881 
Q 2019 -881 2231 -725 
Q 2444 -569 2519 -288 
Q 2563 -116 2559 434 
Q 2191 0 1641 0 
Q 956 0 581 494 
Q 206 988 206 1678 
Q 206 2153 378 2554 
Q 550 2956 876 3175 
Q 1203 3394 1644 3394 
Q 2231 3394 2613 2919 
L 2613 3319 
L 3131 3319 
L 3131 450 
Q 3131 -325 2973 -648 
Q 2816 -972 2473 -1159 
Q 2131 -1347 1631 -1347 
Q 1038 -1347 672 -1080 
Q 306 -813 319 -275 
z
M 784 1719 
Q 784 1066 1043 766 
Q 1303 466 1694 466 
Q 2081 466 2343 764 
Q 2606 1063 2606 1700 
Q 2606 2309 2336 2618 
Q 2066 2928 1684 2928 
Q 1309 2928 1046 2623 
Q 784 2319 784 1719 
z
" transform="scale(0.015625)"/>
     </defs>
     <use xlink:href="#ArialMT-44"/>
     <use xlink:href="#ArialMT-61" transform="translate(72.216797 0)"/>
     <use xlink:href="#ArialMT-6d" transform="translate(127.832031 0)"/>
     <use xlink:href="#ArialMT-70" transform="translate(211.132812 0)"/>
     <use xlink:href="#ArialMT-69" transform="translate(266.748047 0)"/>
     <use xlink:href="#ArialMT-6e" transform="translate(288.964844 0)"/>
     <use xlink:href="#ArialMT-67" transform="translate(344.580078 0)"/>
     <use xlink:href="#ArialMT-20" transform="translate(400.195312 0)"/>
     <use xlink:href="#ArialMT-28" transform="translate(427.978516 0)"/>
     <use xlink:href="#ArialMT-70" transform="translate(461.279297 0)"/>
     <use xlink:href="#ArialMT-2e" transform="translate(516.894531 0)"/>
     <use xlink:href="#ArialMT-75" transform="translate(544.677734 0)"/>
     <use xlink:href="#ArialMT-2e" transform="translate(600.292969 0)"/>
     <use xlink:href="#ArialMT-29" transform="translate(628.076172 0)"/>
    </g>
   </g>
  </g>
  <g id="axis3d_3">
   <g id="line2d_17">
    <path d="M 44.439806 313.630853 
L 35.425847 128.162195 
" style="fill: none; stroke: #000000; stroke-width: 0.8; stroke-linecap: square"/>
   </g>
   <g id="xtick_15">
    <g id="line2d_18">
     <path d="M 46.130703 312.789988 
L 41.052219 315.315465 
" style="fill: none; stroke: #000000; stroke-width: 0.8; stroke-linecap: square"/>
    </g>
    <g id="text_17">
     <!-- 6 -->
     <g transform="translate(20.892035 323.65179) scale(0.14 -0.14)">
      <use xlink:href="#ArialMT-36"/>
     </g>
    </g>
   </g>
   <g id="xtick_16">
    <g id="line2d_19">
     <path d="M 45.068821 290.747681 
L 39.960906 293.248911 
" style="fill: none; stroke: #000000; stroke-width: 0.8; stroke-linecap: square"/>
    </g>
    <g id="text_18">
     <!-- 7 -->
     <g transform="translate(19.713662 301.601405) scale(0.14 -0.14)">
      <use xlink:href="#ArialMT-37"/>
     </g>
    </g>
   </g>
   <g id="xtick_17">
    <g id="line2d_20">
     <path d="M 43.995354 268.464881 
L 38.857666 270.941184 
" style="fill: none; stroke: #000000; stroke-width: 0.8; stroke-linecap: square"/>
    </g>
    <g id="text_19">
     <!-- 8 -->
     <g transform="translate(18.522424 279.3103) scale(0.14 -0.14)">
      <use xlink:href="#ArialMT-38"/>
     </g>
    </g>
   </g>
   <g id="xtick_18">
    <g id="line2d_21">
     <path d="M 42.91011 245.93763 
L 37.742301 248.388306 
" style="fill: none; stroke: #000000; stroke-width: 0.8; stroke-linecap: square"/>
    </g>
    <g id="text_20">
     <!-- 9 -->
     <g transform="translate(17.31811 256.774512) scale(0.14 -0.14)">
      <use xlink:href="#ArialMT-39"/>
     </g>
    </g>
   </g>
   <g id="xtick_19">
    <g id="line2d_22">
     <path d="M 41.812895 223.161885 
L 36.614612 225.586214 
" style="fill: none; stroke: #000000; stroke-width: 0.8; stroke-linecap: square"/>
    </g>
    <g id="text_21">
     <!-- 10 -->
     <g transform="translate(12.207848 233.98999) scale(0.14 -0.14)">
      <use xlink:href="#ArialMT-31"/>
      <use xlink:href="#ArialMT-30" transform="translate(55.615234 0)"/>
     </g>
    </g>
   </g>
   <g id="xtick_20">
    <g id="line2d_23">
     <path d="M 40.703509 200.13351 
L 35.474392 202.530756 
" style="fill: none; stroke: #000000; stroke-width: 0.8; stroke-linecap: square"/>
    </g>
    <g id="text_22">
     <!-- 11 -->
     <g transform="translate(11.492979 210.952593) scale(0.14 -0.14)">
      <use xlink:href="#ArialMT-31"/>
      <use xlink:href="#ArialMT-31" transform="translate(48.240234 0)"/>
     </g>
    </g>
   </g>
   <g id="xtick_21">
    <g id="line2d_24">
     <path d="M 39.58175 176.848279 
L 34.321432 179.217684 
" style="fill: none; stroke: #000000; stroke-width: 0.8; stroke-linecap: square"/>
    </g>
    <g id="text_23">
     <!-- 12 -->
     <g transform="translate(9.731869 187.658087) scale(0.14 -0.14)">
      <use xlink:href="#ArialMT-31"/>
      <use xlink:href="#ArialMT-32" transform="translate(55.615234 0)"/>
     </g>
    </g>
   </g>
   <g id="xtick_22">
    <g id="line2d_25">
     <path d="M 38.447408 153.30187 
L 33.155517 155.642656 
" style="fill: none; stroke: #000000; stroke-width: 0.8; stroke-linecap: square"/>
    </g>
    <g id="text_24">
     <!-- 13 -->
     <g transform="translate(8.473038 164.102144) scale(0.14 -0.14)">
      <use xlink:href="#ArialMT-31"/>
      <use xlink:href="#ArialMT-33" transform="translate(55.615234 0)"/>
     </g>
    </g>
   </g>
   <g id="xtick_23">
    <g id="line2d_26">
     <path d="M 37.300271 129.489864 
L 31.976427 131.801232 
" style="fill: none; stroke: #000000; stroke-width: 0.8; stroke-linecap: square"/>
    </g>
    <g id="text_25">
     <!-- 14 -->
     <g transform="translate(7.2 140.280339) scale(0.14 -0.14)">
      <use xlink:href="#ArialMT-31"/>
      <use xlink:href="#ArialMT-34" transform="translate(55.615234 0)"/>
     </g>
    </g>
   </g>
   <g id="text_26">
    <!-- Inertia (p.u.) -->
    <g transform="translate(-29.097609 180.093299) rotate(-272.782442) scale(0.16 -0.16)">
     <defs>
      <path id="ArialMT-49" d="M 597 0 
L 597 4581 
L 1203 4581 
L 1203 0 
L 597 0 
z
" transform="scale(0.015625)"/>
      <path id="ArialMT-65" d="M 2694 1069 
L 3275 997 
Q 3138 488 2766 206 
Q 2394 -75 1816 -75 
Q 1088 -75 661 373 
Q 234 822 234 1631 
Q 234 2469 665 2931 
Q 1097 3394 1784 3394 
Q 2450 3394 2872 2941 
Q 3294 2488 3294 1666 
Q 3294 1616 3291 1516 
L 816 1516 
Q 847 969 1125 678 
Q 1403 388 1819 388 
Q 2128 388 2347 550 
Q 2566 713 2694 1069 
z
M 847 1978 
L 2700 1978 
Q 2663 2397 2488 2606 
Q 2219 2931 1791 2931 
Q 1403 2931 1139 2672 
Q 875 2413 847 1978 
z
" transform="scale(0.015625)"/>
      <path id="ArialMT-74" d="M 1650 503 
L 1731 6 
Q 1494 -44 1306 -44 
Q 1000 -44 831 53 
Q 663 150 594 308 
Q 525 466 525 972 
L 525 2881 
L 113 2881 
L 113 3319 
L 525 3319 
L 525 4141 
L 1084 4478 
L 1084 3319 
L 1650 3319 
L 1650 2881 
L 1084 2881 
L 1084 941 
Q 1084 700 1114 631 
Q 1144 563 1211 522 
Q 1278 481 1403 481 
Q 1497 481 1650 503 
z
" transform="scale(0.015625)"/>
     </defs>
     <use xlink:href="#ArialMT-49"/>
     <use xlink:href="#ArialMT-6e" transform="translate(27.783203 0)"/>
     <use xlink:href="#ArialMT-65" transform="translate(83.398438 0)"/>
     <use xlink:href="#ArialMT-72" transform="translate(139.013672 0)"/>
     <use xlink:href="#ArialMT-74" transform="translate(172.314453 0)"/>
     <use xlink:href="#ArialMT-69" transform="translate(200.097656 0)"/>
     <use xlink:href="#ArialMT-61" transform="translate(222.314453 0)"/>
     <use xlink:href="#ArialMT-20" transform="translate(277.929688 0)"/>
     <use xlink:href="#ArialMT-28" transform="translate(305.712891 0)"/>
     <use xlink:href="#ArialMT-70" transform="translate(339.013672 0)"/>
     <use xlink:href="#ArialMT-2e" transform="translate(394.628906 0)"/>
     <use xlink:href="#ArialMT-75" transform="translate(422.412109 0)"/>
     <use xlink:href="#ArialMT-2e" transform="translate(478.027344 0)"/>
     <use xlink:href="#ArialMT-29" transform="translate(505.810547 0)"/>
    </g>
   </g>
  </g>
  <g id="axes_1">
   <g id="Path3DCollection_1">
    <defs>
     <path id="C0_0_b7dbc3d74e" d="M 0 2.738613 
C 0.726289 2.738613 1.422928 2.450055 1.936492 1.936492 
C 2.450055 1.422928 2.738613 0.726289 2.738613 -0 
C 2.738613 -0.726289 2.450055 -1.422928 1.936492 -1.936492 
C 1.422928 -2.450055 0.726289 -2.738613 0 -2.738613 
C -0.726289 -2.738613 -1.422928 -2.450055 -1.936492 -1.936492 
C -2.450055 -1.422928 -2.738613 -0.726289 -2.738613 0 
C -2.738613 0.726289 -2.450055 1.422928 -1.936492 1.936492 
C -1.422928 2.450055 -0.726289 2.738613 0 2.738613 
z
"/>
    </defs>
    <g clip-path="url(#p695e7135b0)">
     <use xlink:href="#C0_0_b7dbc3d74e" x="237.312044" y="212.594116" style="fill: #fde725; fill-opacity: 0.7; stroke: #fde725; stroke-opacity: 0.7"/>
    </g>
    <g clip-path="url(#p695e7135b0)">
     <use xlink:href="#C0_0_b7dbc3d74e" x="237.165799" y="78.306488" style="fill: #fde725; fill-opacity: 0.7; stroke: #fde725; stroke-opacity: 0.7"/>
    </g>
    <g clip-path="url(#p695e7135b0)">
     <use xlink:href="#C0_0_b7dbc3d74e" x="401.287093" y="294.100729" style="fill: #fde725; fill-opacity: 0.7; stroke: #fde725; stroke-opacity: 0.7"/>
    </g>
    <g clip-path="url(#p695e7135b0)">
     <use xlink:href="#C0_0_b7dbc3d74e" x="404.572431" y="210.004518" style="fill: #fde725; fill-opacity: 0.7; stroke: #fde725; stroke-opacity: 0.7"/>
    </g>
   </g>
   <g id="Poly3DCollection_1">
    <path d="M 237.312044 212.594116 
L 237.165799 78.306488 
z
" clip-path="url(#p695e7135b0)" style="fill: #fde725; fill-opacity: 0.3; stroke: #000000; stroke-opacity: 0.3"/>
    <path d="M 237.312044 212.594116 
L 401.287093 294.100729 
z
" clip-path="url(#p695e7135b0)" style="fill: #fde725; fill-opacity: 0.3; stroke: #000000; stroke-opacity: 0.3"/>
    <path d="M 404.572431 210.004518 
L 237.165799 78.306488 
z
" clip-path="url(#p695e7135b0)" style="fill: #fde725; fill-opacity: 0.3; stroke: #000000; stroke-opacity: 0.3"/>
    <path d="M 404.572431 210.004518 
L 401.287093 294.100729 
z
" clip-path="url(#p695e7135b0)" style="fill: #fde725; fill-opacity: 0.3; stroke: #000000; stroke-opacity: 0.3"/>
   </g>
   <g id="Path3DCollection_2">
    <defs>
     <path id="C1_0_deebd23557" d="M 0 2.738613 
C 0.726289 2.738613 1.422928 2.450055 1.936492 1.936492 
C 2.450055 1.422928 2.738613 0.726289 2.738613 -0 
C 2.738613 -0.726289 2.450055 -1.422928 1.936492 -1.936492 
C 1.422928 -2.450055 0.726289 -2.738613 0 -2.738613 
C -0.726289 -2.738613 -1.422928 -2.450055 -1.936492 -1.936492 
C -2.450055 -1.422928 -2.738613 -0.726289 -2.738613 0 
C -2.738613 0.726289 -2.450055 1.422928 -1.936492 1.936492 
C -1.422928 2.450055 -0.726289 2.738613 0 2.738613 
z
"/>
    </defs>
    <g clip-path="url(#p695e7135b0)">
     <use xlink:href="#C1_0_deebd23557" x="229.594984" y="216.41747" style="fill: #dde318; fill-opacity: 0.7; stroke: #dde318; stroke-opacity: 0.7"/>
    </g>
    <g clip-path="url(#p695e7135b0)">
     <use xlink:href="#C1_0_deebd23557" x="229.204846" y="83.968307" style="fill: #dde318; fill-opacity: 0.7; stroke: #dde318; stroke-opacity: 0.7"/>
    </g>
    <g clip-path="url(#p695e7135b0)">
     <use xlink:href="#C1_0_deebd23557" x="393.594342" y="298.391934" style="fill: #dde318; fill-opacity: 0.7; stroke: #dde318; stroke-opacity: 0.7"/>
    </g>
    <g clip-path="url(#p695e7135b0)">
     <use xlink:href="#C1_0_deebd23557" x="396.651204" y="216.263884" style="fill: #dde318; fill-opacity: 0.7; stroke: #dde318; stroke-opacity: 0.7"/>
    </g>
   </g>
   <g id="Poly3DCollection_2">
    <path d="M 229.594984 216.41747 
L 229.204846 83.968307 
z
" clip-path="url(#p695e7135b0)" style="fill: #dde318; fill-opacity: 0.3; stroke: #000000; stroke-opacity: 0.3"/>
    <path d="M 229.594984 216.41747 
L 393.594342 298.391934 
z
" clip-path="url(#p695e7135b0)" style="fill: #dde318; fill-opacity: 0.3; stroke: #000000; stroke-opacity: 0.3"/>
    <path d="M 396.651204 216.263884 
L 229.204846 83.968307 
z
" clip-path="url(#p695e7135b0)" style="fill: #dde318; fill-opacity: 0.3; stroke: #000000; stroke-opacity: 0.3"/>
    <path d="M 396.651204 216.263884 
L 393.594342 298.391934 
z
" clip-path="url(#p695e7135b0)" style="fill: #dde318; fill-opacity: 0.3; stroke: #000000; stroke-opacity: 0.3"/>
   </g>
   <g id="Path3DCollection_3">
    <defs>
     <path id="C2_0_c14947cb20" d="M 0 2.738613 
C 0.726289 2.738613 1.422928 2.450055 1.936492 1.936492 
C 2.450055 1.422928 2.738613 0.726289 2.738613 -0 
C 2.738613 -0.726289 2.450055 -1.422928 1.936492 -1.936492 
C 1.422928 -2.450055 0.726289 -2.738613 0 -2.738613 
C -0.726289 -2.738613 -1.422928 -2.450055 -1.936492 -1.936492 
C -2.450055 -1.422928 -2.738613 -0.726289 -2.738613 0 
C -2.738613 0.726289 -2.450055 1.422928 -1.936492 1.936492 
C -1.422928 2.450055 -0.726289 2.738613 0 2.738613 
z
"/>
    </defs>
    <g clip-path="url(#p695e7135b0)">
     <use xlink:href="#C2_0_c14947cb20" x="221.83485" y="220.262165" style="fill: #bade28; fill-opacity: 0.7; stroke: #bade28; stroke-opacity: 0.7"/>
    </g>
    <g clip-path="url(#p695e7135b0)">
     <use xlink:href="#C2_0_c14947cb20" x="221.20587" y="89.657168" style="fill: #bade28; fill-opacity: 0.7; stroke: #bade28; stroke-opacity: 0.7"/>
    </g>
    <g clip-path="url(#p695e7135b0)">
     <use xlink:href="#C2_0_c14947cb20" x="385.856089" y="302.70852" style="fill: #bade28; fill-opacity: 0.7; stroke: #bade28; stroke-opacity: 0.7"/>
    </g>
    <g clip-path="url(#p695e7135b0)">
     <use xlink:href="#C2_0_c14947cb20" x="388.69034" y="222.55457" style="fill: #bade28; fill-opacity: 0.7; stroke: #bade28; stroke-opacity: 0.7"/>
    </g>
   </g>
   <g id="Poly3DCollection_3">
    <path d="M 221.83485 220.262165 
L 221.20587 89.657168 
z
" clip-path="url(#p695e7135b0)" style="fill: #bade28; fill-opacity: 0.3; stroke: #000000; stroke-opacity: 0.3"/>
    <path d="M 221.83485 220.262165 
L 385.856089 302.70852 
z
" clip-path="url(#p695e7135b0)" style="fill: #bade28; fill-opacity: 0.3; stroke: #000000; stroke-opacity: 0.3"/>
    <path d="M 388.69034 222.55457 
L 221.20587 89.657168 
z
" clip-path="url(#p695e7135b0)" style="fill: #bade28; fill-opacity: 0.3; stroke: #000000; stroke-opacity: 0.3"/>
    <path d="M 388.69034 222.55457 
L 385.856089 302.70852 
z
" clip-path="url(#p695e7135b0)" style="fill: #bade28; fill-opacity: 0.3; stroke: #000000; stroke-opacity: 0.3"/>
   </g>
   <g id="Path3DCollection_4">
    <defs>
     <path id="C3_0_7aa44e1d06" d="M 0 2.738613 
C 0.726289 2.738613 1.422928 2.450055 1.936492 1.936492 
C 2.450055 1.422928 2.738613 0.726289 2.738613 -0 
C 2.738613 -0.726289 2.450055 -1.422928 1.936492 -1.936492 
C 1.422928 -2.450055 0.726289 -2.738613 0 -2.738613 
C -0.726289 -2.738613 -1.422928 -2.450055 -1.936492 -1.936492 
C -2.450055 -1.422928 -2.738613 -0.726289 -2.738613 0 
C -2.738613 0.726289 -2.450055 1.422928 -1.936492 1.936492 
C -1.422928 2.450055 -0.726289 2.738613 0 2.738613 
z
"/>
    </defs>
    <g clip-path="url(#p695e7135b0)">
     <use xlink:href="#C3_0_7aa44e1d06" x="214.031278" y="224.12838" style="fill: #95d840; fill-opacity: 0.7; stroke: #95d840; stroke-opacity: 0.7"/>
    </g>
    <g clip-path="url(#p695e7135b0)">
     <use xlink:href="#C3_0_7aa44e1d06" x="213.168595" y="95.373266" style="fill: #95d840; fill-opacity: 0.7; stroke: #95d840; stroke-opacity: 0.7"/>
    </g>
    <g clip-path="url(#p695e7135b0)">
     <use xlink:href="#C3_0_7aa44e1d06" x="378.071929" y="307.050715" style="fill: #95d840; fill-opacity: 0.7; stroke: #95d840; stroke-opacity: 0.7"/>
    </g>
    <g clip-path="url(#p695e7135b0)">
     <use xlink:href="#C3_0_7aa44e1d06" x="380.689542" y="228.876813" style="fill: #95d840; fill-opacity: 0.7; stroke: #95d840; stroke-opacity: 0.7"/>
    </g>
   </g>
   <g id="Poly3DCollection_4">
    <path d="M 214.031278 224.12838 
L 213.168595 95.373266 
z
" clip-path="url(#p695e7135b0)" style="fill: #95d840; fill-opacity: 0.3; stroke: #000000; stroke-opacity: 0.3"/>
    <path d="M 214.031278 224.12838 
L 378.071929 307.050715 
z
" clip-path="url(#p695e7135b0)" style="fill: #95d840; fill-opacity: 0.3; stroke: #000000; stroke-opacity: 0.3"/>
    <path d="M 380.689542 228.876813 
L 213.168595 95.373266 
z
" clip-path="url(#p695e7135b0)" style="fill: #95d840; fill-opacity: 0.3; stroke: #000000; stroke-opacity: 0.3"/>
    <path d="M 380.689542 228.876813 
L 378.071929 307.050715 
z
" clip-path="url(#p695e7135b0)" style="fill: #95d840; fill-opacity: 0.3; stroke: #000000; stroke-opacity: 0.3"/>
   </g>
   <g id="Path3DCollection_5">
    <defs>
     <path id="C4_0_6dffe6621b" d="M 0 2.738613 
C 0.726289 2.738613 1.422928 2.450055 1.936492 1.936492 
C 2.450055 1.422928 2.738613 0.726289 2.738613 -0 
C 2.738613 -0.726289 2.450055 -1.422928 1.936492 -1.936492 
C 1.422928 -2.450055 0.726289 -2.738613 0 -2.738613 
C -0.726289 -2.738613 -1.422928 -2.450055 -1.936492 -1.936492 
C -2.450055 -1.422928 -2.738613 -0.726289 -2.738613 0 
C -2.738613 0.726289 -2.450055 1.422928 -1.936492 1.936492 
C -1.422928 2.450055 -0.726289 2.738613 0 2.738613 
z
"/>
    </defs>
    <g clip-path="url(#p695e7135b0)">
     <use xlink:href="#C4_0_6dffe6621b" x="206.183905" y="228.016297" style="fill: #75d054; fill-opacity: 0.7; stroke: #75d054; stroke-opacity: 0.7"/>
    </g>
    <g clip-path="url(#p695e7135b0)">
     <use xlink:href="#C4_0_6dffe6621b" x="205.092748" y="101.116798" style="fill: #75d054; fill-opacity: 0.7; stroke: #75d054; stroke-opacity: 0.7"/>
    </g>
    <g clip-path="url(#p695e7135b0)">
     <use xlink:href="#C4_0_6dffe6621b" x="370.241453" y="311.418746" style="fill: #75d054; fill-opacity: 0.7; stroke: #75d054; stroke-opacity: 0.7"/>
    </g>
    <g clip-path="url(#p695e7135b0)">
     <use xlink:href="#C4_0_6dffe6621b" x="372.648509" y="235.230849" style="fill: #75d054; fill-opacity: 0.7; stroke: #75d054; stroke-opacity: 0.7"/>
    </g>
   </g>
   <g id="Poly3DCollection_5">
    <path d="M 206.183905 228.016297 
L 205.092748 101.116798 
z
" clip-path="url(#p695e7135b0)" style="fill: #75d054; fill-opacity: 0.3; stroke: #000000; stroke-opacity: 0.3"/>
    <path d="M 206.183905 228.016297 
L 370.241453 311.418746 
z
" clip-path="url(#p695e7135b0)" style="fill: #75d054; fill-opacity: 0.3; stroke: #000000; stroke-opacity: 0.3"/>
    <path d="M 372.648509 235.230849 
L 205.092748 101.116798 
z
" clip-path="url(#p695e7135b0)" style="fill: #75d054; fill-opacity: 0.3; stroke: #000000; stroke-opacity: 0.3"/>
    <path d="M 372.648509 235.230849 
L 370.241453 311.418746 
z
" clip-path="url(#p695e7135b0)" style="fill: #75d054; fill-opacity: 0.3; stroke: #000000; stroke-opacity: 0.3"/>
   </g>
   <g id="Path3DCollection_6">
    <defs>
     <path id="C5_0_e2777f2552" d="M 0 2.738613 
C 0.726289 2.738613 1.422928 2.450055 1.936492 1.936492 
C 2.450055 1.422928 2.738613 0.726289 2.738613 -0 
C 2.738613 -0.726289 2.450055 -1.422928 1.936492 -1.936492 
C 1.422928 -2.450055 0.726289 -2.738613 0 -2.738613 
C -0.726289 -2.738613 -1.422928 -2.450055 -1.936492 -1.936492 
C -2.450055 -1.422928 -2.738613 -0.726289 -2.738613 0 
C -2.738613 0.726289 -2.450055 1.422928 -1.936492 1.936492 
C -1.422928 2.450055 -0.726289 2.738613 0 2.738613 
z
"/>
    </defs>
    <g clip-path="url(#p695e7135b0)">
     <use xlink:href="#C5_0_e2777f2552" x="198.29236" y="231.926098" style="fill: #56c667; fill-opacity: 0.7; stroke: #56c667; stroke-opacity: 0.7"/>
    </g>
    <g clip-path="url(#p695e7135b0)">
     <use xlink:href="#C5_0_e2777f2552" x="196.978049" y="106.887961" style="fill: #56c667; fill-opacity: 0.7; stroke: #56c667; stroke-opacity: 0.7"/>
    </g>
    <g clip-path="url(#p695e7135b0)">
     <use xlink:href="#C5_0_e2777f2552" x="362.364246" y="315.812845" style="fill: #56c667; fill-opacity: 0.7; stroke: #56c667; stroke-opacity: 0.7"/>
    </g>
    <g clip-path="url(#p695e7135b0)">
     <use xlink:href="#C5_0_e2777f2552" x="364.566936" y="241.61692" style="fill: #56c667; fill-opacity: 0.7; stroke: #56c667; stroke-opacity: 0.7"/>
    </g>
   </g>
   <g id="Poly3DCollection_6">
    <path d="M 198.29236 231.926098 
L 196.978049 106.887961 
z
" clip-path="url(#p695e7135b0)" style="fill: #56c667; fill-opacity: 0.3; stroke: #000000; stroke-opacity: 0.3"/>
    <path d="M 198.29236 231.926098 
L 362.364246 315.812845 
z
" clip-path="url(#p695e7135b0)" style="fill: #56c667; fill-opacity: 0.3; stroke: #000000; stroke-opacity: 0.3"/>
    <path d="M 364.566936 241.61692 
L 196.978049 106.887961 
z
" clip-path="url(#p695e7135b0)" style="fill: #56c667; fill-opacity: 0.3; stroke: #000000; stroke-opacity: 0.3"/>
    <path d="M 364.566936 241.61692 
L 362.364246 315.812845 
z
" clip-path="url(#p695e7135b0)" style="fill: #56c667; fill-opacity: 0.3; stroke: #000000; stroke-opacity: 0.3"/>
   </g>
   <g id="Path3DCollection_7">
    <defs>
     <path id="C6_0_6fbdd27642" d="M 0 2.738613 
C 0.726289 2.738613 1.422928 2.450055 1.936492 1.936492 
C 2.450055 1.422928 2.738613 0.726289 2.738613 -0 
C 2.738613 -0.726289 2.450055 -1.422928 1.936492 -1.936492 
C 1.422928 -2.450055 0.726289 -2.738613 0 -2.738613 
C -0.726289 -2.738613 -1.422928 -2.450055 -1.936492 -1.936492 
C -2.450055 -1.422928 -2.738613 -0.726289 -2.738613 0 
C -2.738613 0.726289 -2.450055 1.422928 -1.936492 1.936492 
C -1.422928 2.450055 -0.726289 2.738613 0 2.738613 
z
"/>
    </defs>
    <g clip-path="url(#p695e7135b0)">
     <use xlink:href="#C6_0_6fbdd27642" x="190.356269" y="235.857969" style="fill: #3dbc74; fill-opacity: 0.7; stroke: #3dbc74; stroke-opacity: 0.7"/>
    </g>
    <g clip-path="url(#p695e7135b0)">
     <use xlink:href="#C6_0_6fbdd27642" x="188.824217" y="112.686955" style="fill: #3dbc74; fill-opacity: 0.7; stroke: #3dbc74; stroke-opacity: 0.7"/>
    </g>
    <g clip-path="url(#p695e7135b0)">
     <use xlink:href="#C6_0_6fbdd27642" x="354.439889" y="320.233246" style="fill: #3dbc74; fill-opacity: 0.7; stroke: #3dbc74; stroke-opacity: 0.7"/>
    </g>
    <g clip-path="url(#p695e7135b0)">
     <use xlink:href="#C6_0_6fbdd27642" x="356.444516" y="248.035268" style="fill: #3dbc74; fill-opacity: 0.7; stroke: #3dbc74; stroke-opacity: 0.7"/>
    </g>
   </g>
   <g id="Poly3DCollection_7">
    <path d="M 190.356269 235.857969 
L 188.824217 112.686955 
z
" clip-path="url(#p695e7135b0)" style="fill: #3dbc74; fill-opacity: 0.3; stroke: #000000; stroke-opacity: 0.3"/>
    <path d="M 190.356269 235.857969 
L 354.439889 320.233246 
z
" clip-path="url(#p695e7135b0)" style="fill: #3dbc74; fill-opacity: 0.3; stroke: #000000; stroke-opacity: 0.3"/>
    <path d="M 356.444516 248.035268 
L 188.824217 112.686955 
z
" clip-path="url(#p695e7135b0)" style="fill: #3dbc74; fill-opacity: 0.3; stroke: #000000; stroke-opacity: 0.3"/>
    <path d="M 356.444516 248.035268 
L 354.439889 320.233246 
z
" clip-path="url(#p695e7135b0)" style="fill: #3dbc74; fill-opacity: 0.3; stroke: #000000; stroke-opacity: 0.3"/>
   </g>
   <g id="Path3DCollection_8">
    <defs>
     <path id="C7_0_b636e1fb92" d="M 0 2.738613 
C 0.726289 2.738613 1.422928 2.450055 1.936492 1.936492 
C 2.450055 1.422928 2.738613 0.726289 2.738613 -0 
C 2.738613 -0.726289 2.450055 -1.422928 1.936492 -1.936492 
C 1.422928 -2.450055 0.726289 -2.738613 0 -2.738613 
C -0.726289 -2.738613 -1.422928 -2.450055 -1.936492 -1.936492 
C -2.450055 -1.422928 -2.738613 -0.726289 -2.738613 0 
C -2.738613 0.726289 -2.450055 1.422928 -1.936492 1.936492 
C -1.422928 2.450055 -0.726289 2.738613 0 2.738613 
z
"/>
    </defs>
    <g clip-path="url(#p695e7135b0)">
     <use xlink:href="#C7_0_b636e1fb92" x="182.375254" y="239.812097" style="fill: #29af7f; fill-opacity: 0.7; stroke: #29af7f; stroke-opacity: 0.7"/>
    </g>
    <g clip-path="url(#p695e7135b0)">
     <use xlink:href="#C7_0_b636e1fb92" x="180.630969" y="118.513981" style="fill: #29af7f; fill-opacity: 0.7; stroke: #29af7f; stroke-opacity: 0.7"/>
    </g>
    <g clip-path="url(#p695e7135b0)">
     <use xlink:href="#C7_0_b636e1fb92" x="346.467956" y="324.680185" style="fill: #29af7f; fill-opacity: 0.7; stroke: #29af7f; stroke-opacity: 0.7"/>
    </g>
    <g clip-path="url(#p695e7135b0)">
     <use xlink:href="#C7_0_b636e1fb92" x="348.280938" y="254.486139" style="fill: #29af7f; fill-opacity: 0.7; stroke: #29af7f; stroke-opacity: 0.7"/>
    </g>
   </g>
   <g id="Poly3DCollection_8">
    <path d="M 182.375254 239.812097 
L 180.630969 118.513981 
z
" clip-path="url(#p695e7135b0)" style="fill: #29af7f; fill-opacity: 0.3; stroke: #000000; stroke-opacity: 0.3"/>
    <path d="M 182.375254 239.812097 
L 346.467956 324.680185 
z
" clip-path="url(#p695e7135b0)" style="fill: #29af7f; fill-opacity: 0.3; stroke: #000000; stroke-opacity: 0.3"/>
    <path d="M 348.280938 254.486139 
L 180.630969 118.513981 
z
" clip-path="url(#p695e7135b0)" style="fill: #29af7f; fill-opacity: 0.3; stroke: #000000; stroke-opacity: 0.3"/>
    <path d="M 348.280938 254.486139 
L 346.467956 324.680185 
z
" clip-path="url(#p695e7135b0)" style="fill: #29af7f; fill-opacity: 0.3; stroke: #000000; stroke-opacity: 0.3"/>
   </g>
   <g id="Path3DCollection_9">
    <defs>
     <path id="C8_0_2cf7846045" d="M 0 2.738613 
C 0.726289 2.738613 1.422928 2.450055 1.936492 1.936492 
C 2.450055 1.422928 2.738613 0.726289 2.738613 -0 
C 2.738613 -0.726289 2.450055 -1.422928 1.936492 -1.936492 
C 1.422928 -2.450055 0.726289 -2.738613 0 -2.738613 
C -0.726289 -2.738613 -1.422928 -2.450055 -1.936492 -1.936492 
C -2.450055 -1.422928 -2.738613 -0.726289 -2.738613 0 
C -2.738613 0.726289 -2.450055 1.422928 -1.936492 1.936492 
C -1.422928 2.450055 -0.726289 2.738613 0 2.738613 
z
"/>
    </defs>
    <g clip-path="url(#p695e7135b0)">
     <use xlink:href="#C8_0_2cf7846045" x="174.348932" y="243.788673" style="fill: #20a386; fill-opacity: 0.7; stroke: #20a386; stroke-opacity: 0.7"/>
    </g>
    <g clip-path="url(#p695e7135b0)">
     <use xlink:href="#C8_0_2cf7846045" x="172.398018" y="124.369245" style="fill: #20a386; fill-opacity: 0.7; stroke: #20a386; stroke-opacity: 0.7"/>
    </g>
    <g clip-path="url(#p695e7135b0)">
     <use xlink:href="#C8_0_2cf7846045" x="338.448019" y="329.153902" style="fill: #20a386; fill-opacity: 0.7; stroke: #20a386; stroke-opacity: 0.7"/>
    </g>
    <g clip-path="url(#p695e7135b0)">
     <use xlink:href="#C8_0_2cf7846045" x="340.07589" y="260.969781" style="fill: #20a386; fill-opacity: 0.7; stroke: #20a386; stroke-opacity: 0.7"/>
    </g>
   </g>
   <g id="Poly3DCollection_9">
    <path d="M 174.348932 243.788673 
L 172.398018 124.369245 
z
" clip-path="url(#p695e7135b0)" style="fill: #20a386; fill-opacity: 0.3; stroke: #000000; stroke-opacity: 0.3"/>
    <path d="M 174.348932 243.788673 
L 338.448019 329.153902 
z
" clip-path="url(#p695e7135b0)" style="fill: #20a386; fill-opacity: 0.3; stroke: #000000; stroke-opacity: 0.3"/>
    <path d="M 340.07589 260.969781 
L 172.398018 124.369245 
z
" clip-path="url(#p695e7135b0)" style="fill: #20a386; fill-opacity: 0.3; stroke: #000000; stroke-opacity: 0.3"/>
    <path d="M 340.07589 260.969781 
L 338.448019 329.153902 
z
" clip-path="url(#p695e7135b0)" style="fill: #20a386; fill-opacity: 0.3; stroke: #000000; stroke-opacity: 0.3"/>
   </g>
   <g id="Path3DCollection_10">
    <defs>
     <path id="C9_0_aa8c394885" d="M 0 2.738613 
C 0.726289 2.738613 1.422928 2.450055 1.936492 1.936492 
C 2.450055 1.422928 2.738613 0.726289 2.738613 -0 
C 2.738613 -0.726289 2.450055 -1.422928 1.936492 -1.936492 
C 1.422928 -2.450055 0.726289 -2.738613 0 -2.738613 
C -0.726289 -2.738613 -1.422928 -2.450055 -1.936492 -1.936492 
C -2.450055 -1.422928 -2.738613 -0.726289 -2.738613 0 
C -2.738613 0.726289 -2.450055 1.422928 -1.936492 1.936492 
C -1.422928 2.450055 -0.726289 2.738613 0 2.738613 
z
"/>
    </defs>
    <g clip-path="url(#p695e7135b0)">
     <use xlink:href="#C9_0_aa8c394885" x="166.276916" y="247.787887" style="fill: #1f968b; fill-opacity: 0.7; stroke: #1f968b; stroke-opacity: 0.7"/>
    </g>
    <g clip-path="url(#p695e7135b0)">
     <use xlink:href="#C9_0_aa8c394885" x="164.125075" y="130.25295" style="fill: #1f968b; fill-opacity: 0.7; stroke: #1f968b; stroke-opacity: 0.7"/>
    </g>
    <g clip-path="url(#p695e7135b0)">
     <use xlink:href="#C9_0_aa8c394885" x="330.379642" y="333.65464" style="fill: #1f968b; fill-opacity: 0.7; stroke: #1f968b; stroke-opacity: 0.7"/>
    </g>
    <g clip-path="url(#p695e7135b0)">
     <use xlink:href="#C9_0_aa8c394885" x="331.829053" y="267.486444" style="fill: #1f968b; fill-opacity: 0.7; stroke: #1f968b; stroke-opacity: 0.7"/>
    </g>
   </g>
   <g id="Poly3DCollection_10">
    <path d="M 166.276916 247.787887 
L 164.125075 130.25295 
z
" clip-path="url(#p695e7135b0)" style="fill: #1f968b; fill-opacity: 0.3; stroke: #000000; stroke-opacity: 0.3"/>
    <path d="M 166.276916 247.787887 
L 330.379642 333.65464 
z
" clip-path="url(#p695e7135b0)" style="fill: #1f968b; fill-opacity: 0.3; stroke: #000000; stroke-opacity: 0.3"/>
    <path d="M 331.829053 267.486444 
L 164.125075 130.25295 
z
" clip-path="url(#p695e7135b0)" style="fill: #1f968b; fill-opacity: 0.3; stroke: #000000; stroke-opacity: 0.3"/>
    <path d="M 331.829053 267.486444 
L 330.379642 333.65464 
z
" clip-path="url(#p695e7135b0)" style="fill: #1f968b; fill-opacity: 0.3; stroke: #000000; stroke-opacity: 0.3"/>
   </g>
   <g id="Path3DCollection_11">
    <defs>
     <path id="Ca_0_775765d847" d="M 0 2.738613 
C 0.726289 2.738613 1.422928 2.450055 1.936492 1.936492 
C 2.450055 1.422928 2.738613 0.726289 2.738613 -0 
C 2.738613 -0.726289 2.450055 -1.422928 1.936492 -1.936492 
C 1.422928 -2.450055 0.726289 -2.738613 0 -2.738613 
C -0.726289 -2.738613 -1.422928 -2.450055 -1.936492 -1.936492 
C -2.450055 -1.422928 -2.738613 -0.726289 -2.738613 0 
C -2.738613 0.726289 -2.450055 1.422928 -1.936492 1.936492 
C -1.422928 2.450055 -0.726289 2.738613 0 2.738613 
z
"/>
    </defs>
    <g clip-path="url(#p695e7135b0)">
     <use xlink:href="#Ca_0_775765d847" x="158.158816" y="251.809933" style="fill: #238a8d; fill-opacity: 0.7; stroke: #238a8d; stroke-opacity: 0.7"/>
    </g>
    <g clip-path="url(#p695e7135b0)">
     <use xlink:href="#Ca_0_775765d847" x="155.811848" y="136.165306" style="fill: #238a8d; fill-opacity: 0.7; stroke: #238a8d; stroke-opacity: 0.7"/>
    </g>
    <g clip-path="url(#p695e7135b0)">
     <use xlink:href="#Ca_0_775765d847" x="322.262385" y="338.182645" style="fill: #238a8d; fill-opacity: 0.7; stroke: #238a8d; stroke-opacity: 0.7"/>
    </g>
    <g clip-path="url(#p695e7135b0)">
     <use xlink:href="#Ca_0_775765d847" x="323.540108" y="274.03638" style="fill: #238a8d; fill-opacity: 0.7; stroke: #238a8d; stroke-opacity: 0.7"/>
    </g>
   </g>
   <g id="Poly3DCollection_11">
    <path d="M 158.158816 251.809933 
L 155.811848 136.165306 
z
" clip-path="url(#p695e7135b0)" style="fill: #238a8d; fill-opacity: 0.3; stroke: #000000; stroke-opacity: 0.3"/>
    <path d="M 158.158816 251.809933 
L 322.262385 338.182645 
z
" clip-path="url(#p695e7135b0)" style="fill: #238a8d; fill-opacity: 0.3; stroke: #000000; stroke-opacity: 0.3"/>
    <path d="M 323.540108 274.03638 
L 155.811848 136.165306 
z
" clip-path="url(#p695e7135b0)" style="fill: #238a8d; fill-opacity: 0.3; stroke: #000000; stroke-opacity: 0.3"/>
    <path d="M 323.540108 274.03638 
L 322.262385 338.182645 
z
" clip-path="url(#p695e7135b0)" style="fill: #238a8d; fill-opacity: 0.3; stroke: #000000; stroke-opacity: 0.3"/>
   </g>
   <g id="Path3DCollection_12">
    <defs>
     <path id="Cb_0_08cc63fbda" d="M 0 2.738613 
C 0.726289 2.738613 1.422928 2.450055 1.936492 1.936492 
C 2.450055 1.422928 2.738613 0.726289 2.738613 -0 
C 2.738613 -0.726289 2.450055 -1.422928 1.936492 -1.936492 
C 1.422928 -2.450055 0.726289 -2.738613 0 -2.738613 
C -0.726289 -2.738613 -1.422928 -2.450055 -1.936492 -1.936492 
C -2.450055 -1.422928 -2.738613 -0.726289 -2.738613 0 
C -2.738613 0.726289 -2.450055 1.422928 -1.936492 1.936492 
C -1.422928 2.450055 -0.726289 2.738613 0 2.738613 
z
"/>
    </defs>
    <g clip-path="url(#p695e7135b0)">
     <use xlink:href="#Cb_0_08cc63fbda" x="149.994234" y="255.855008" style="fill: #287d8e; fill-opacity: 0.7; stroke: #287d8e; stroke-opacity: 0.7"/>
    </g>
    <g clip-path="url(#p695e7135b0)">
     <use xlink:href="#Cb_0_08cc63fbda" x="147.458042" y="142.106522" style="fill: #287d8e; fill-opacity: 0.7; stroke: #287d8e; stroke-opacity: 0.7"/>
    </g>
    <g clip-path="url(#p695e7135b0)">
     <use xlink:href="#Cb_0_08cc63fbda" x="314.095802" y="342.738165" style="fill: #287d8e; fill-opacity: 0.7; stroke: #287d8e; stroke-opacity: 0.7"/>
    </g>
    <g clip-path="url(#p695e7135b0)">
     <use xlink:href="#Cb_0_08cc63fbda" x="315.208732" y="280.619846" style="fill: #287d8e; fill-opacity: 0.7; stroke: #287d8e; stroke-opacity: 0.7"/>
    </g>
   </g>
   <g id="Poly3DCollection_12">
    <path d="M 149.994234 255.855008 
L 147.458042 142.106522 
z
" clip-path="url(#p695e7135b0)" style="fill: #287d8e; fill-opacity: 0.3; stroke: #000000; stroke-opacity: 0.3"/>
    <path d="M 149.994234 255.855008 
L 314.095802 342.738165 
z
" clip-path="url(#p695e7135b0)" style="fill: #287d8e; fill-opacity: 0.3; stroke: #000000; stroke-opacity: 0.3"/>
    <path d="M 315.208732 280.619846 
L 147.458042 142.106522 
z
" clip-path="url(#p695e7135b0)" style="fill: #287d8e; fill-opacity: 0.3; stroke: #000000; stroke-opacity: 0.3"/>
    <path d="M 315.208732 280.619846 
L 314.095802 342.738165 
z
" clip-path="url(#p695e7135b0)" style="fill: #287d8e; fill-opacity: 0.3; stroke: #000000; stroke-opacity: 0.3"/>
   </g>
   <g id="Path3DCollection_13">
    <defs>
     <path id="Cc_0_ad7f6e7010" d="M 0 2.738613 
C 0.726289 2.738613 1.422928 2.450055 1.936492 1.936492 
C 2.450055 1.422928 2.738613 0.726289 2.738613 -0 
C 2.738613 -0.726289 2.450055 -1.422928 1.936492 -1.936492 
C 1.422928 -2.450055 0.726289 -2.738613 0 -2.738613 
C -0.726289 -2.738613 -1.422928 -2.450055 -1.936492 -1.936492 
C -2.450055 -1.422928 -2.738613 -0.726289 -2.738613 0 
C -2.738613 0.726289 -2.450055 1.422928 -1.936492 1.936492 
C -1.422928 2.450055 -0.726289 2.738613 0 2.738613 
z
"/>
    </defs>
    <g clip-path="url(#p695e7135b0)">
     <use xlink:href="#Cc_0_ad7f6e7010" x="141.782772" y="259.923309" style="fill: #2d718e; fill-opacity: 0.7; stroke: #2d718e; stroke-opacity: 0.7"/>
    </g>
    <g clip-path="url(#p695e7135b0)">
     <use xlink:href="#Cc_0_ad7f6e7010" x="139.063358" y="148.076809" style="fill: #2d718e; fill-opacity: 0.7; stroke: #2d718e; stroke-opacity: 0.7"/>
    </g>
    <g clip-path="url(#p695e7135b0)">
     <use xlink:href="#Cc_0_ad7f6e7010" x="305.879443" y="347.321451" style="fill: #2d718e; fill-opacity: 0.7; stroke: #2d718e; stroke-opacity: 0.7"/>
    </g>
    <g clip-path="url(#p695e7135b0)">
     <use xlink:href="#Cc_0_ad7f6e7010" x="305.880871" y="347.231602" style="fill: #2d718e; fill-opacity: 0.7; stroke: #2d718e; stroke-opacity: 0.7"/>
    </g>
    <g clip-path="url(#p695e7135b0)">
     <use xlink:href="#Cc_0_ad7f6e7010" x="306.834598" y="287.237099" style="fill: #2d718e; fill-opacity: 0.7; stroke: #2d718e; stroke-opacity: 0.7"/>
    </g>
   </g>
   <g id="Poly3DCollection_13">
    <path d="M 141.782772 259.923309 
L 139.063358 148.076809 
z
" clip-path="url(#p695e7135b0)" style="fill: #2d718e; fill-opacity: 0.3; stroke: #000000; stroke-opacity: 0.3"/>
    <path d="M 141.782772 259.923309 
L 305.879443 347.321451 
z
" clip-path="url(#p695e7135b0)" style="fill: #2d718e; fill-opacity: 0.3; stroke: #000000; stroke-opacity: 0.3"/>
    <path d="M 306.834598 287.237099 
L 139.063358 148.076809 
z
" clip-path="url(#p695e7135b0)" style="fill: #2d718e; fill-opacity: 0.3; stroke: #000000; stroke-opacity: 0.3"/>
    <path d="M 306.834598 287.237099 
L 305.879443 347.321451 
z
" clip-path="url(#p695e7135b0)" style="fill: #2d718e; fill-opacity: 0.3; stroke: #000000; stroke-opacity: 0.3"/>
   </g>
   <g id="Path3DCollection_14">
    <defs>
     <path id="Cd_0_5dd4c7d36a" d="M 0 2.738613 
C 0.726289 2.738613 1.422928 2.450055 1.936492 1.936492 
C 2.450055 1.422928 2.738613 0.726289 2.738613 -0 
C 2.738613 -0.726289 2.450055 -1.422928 1.936492 -1.936492 
C 1.422928 -2.450055 0.726289 -2.738613 0 -2.738613 
C -0.726289 -2.738613 -1.422928 -2.450055 -1.936492 -1.936492 
C -2.450055 -1.422928 -2.738613 -0.726289 -2.738613 0 
C -2.738613 0.726289 -2.450055 1.422928 -1.936492 1.936492 
C -1.422928 2.450055 -0.726289 2.738613 0 2.738613 
z
"/>
    </defs>
    <g clip-path="url(#p695e7135b0)">
     <use xlink:href="#Cd_0_5dd4c7d36a" x="133.524023" y="264.015038" style="fill: #33638d; fill-opacity: 0.7; stroke: #33638d; stroke-opacity: 0.7"/>
    </g>
    <g clip-path="url(#p695e7135b0)">
     <use xlink:href="#Cd_0_5dd4c7d36a" x="130.627496" y="154.076383" style="fill: #33638d; fill-opacity: 0.7; stroke: #33638d; stroke-opacity: 0.7"/>
    </g>
    <g clip-path="url(#p695e7135b0)">
     <use xlink:href="#Cd_0_5dd4c7d36a" x="283.925992" y="344.599429" style="fill: #33638d; fill-opacity: 0.7; stroke: #33638d; stroke-opacity: 0.7"/>
    </g>
    <g clip-path="url(#p695e7135b0)">
     <use xlink:href="#Cd_0_5dd4c7d36a" x="297.738516" y="342.86638" style="fill: #33638d; fill-opacity: 0.7; stroke: #33638d; stroke-opacity: 0.7"/>
    </g>
    <g clip-path="url(#p695e7135b0)">
     <use xlink:href="#Cd_0_5dd4c7d36a" x="298.417376" y="293.8884" style="fill: #33638d; fill-opacity: 0.7; stroke: #33638d; stroke-opacity: 0.7"/>
    </g>
   </g>
   <g id="Poly3DCollection_14">
    <path d="M 133.524023 264.015038 
L 130.627496 154.076383 
z
" clip-path="url(#p695e7135b0)" style="fill: #33638d; fill-opacity: 0.3; stroke: #000000; stroke-opacity: 0.3"/>
    <path d="M 283.925992 344.599429 
L 133.524023 264.015038 
z
" clip-path="url(#p695e7135b0)" style="fill: #33638d; fill-opacity: 0.3; stroke: #000000; stroke-opacity: 0.3"/>
    <path d="M 298.417376 293.8884 
L 130.627496 154.076383 
z
" clip-path="url(#p695e7135b0)" style="fill: #33638d; fill-opacity: 0.3; stroke: #000000; stroke-opacity: 0.3"/>
    <path d="M 283.925992 344.599429 
L 297.738516 342.86638 
z
" clip-path="url(#p695e7135b0)" style="fill: #33638d; fill-opacity: 0.3; stroke: #000000; stroke-opacity: 0.3"/>
    <path d="M 298.417376 293.8884 
L 297.738516 342.86638 
z
" clip-path="url(#p695e7135b0)" style="fill: #33638d; fill-opacity: 0.3; stroke: #000000; stroke-opacity: 0.3"/>
   </g>
   <g id="Path3DCollection_15">
    <defs>
     <path id="Ce_0_2930e6ee66" d="M 0 2.738613 
C 0.726289 2.738613 1.422928 2.450055 1.936492 1.936492 
C 2.450055 1.422928 2.738613 0.726289 2.738613 -0 
C 2.738613 -0.726289 2.450055 -1.422928 1.936492 -1.936492 
C 1.422928 -2.450055 0.726289 -2.738613 0 -2.738613 
C -0.726289 -2.738613 -1.422928 -2.450055 -1.936492 -1.936492 
C -2.450055 -1.422928 -2.738613 -0.726289 -2.738613 0 
C -2.738613 0.726289 -2.450055 1.422928 -1.936492 1.936492 
C -1.422928 2.450055 -0.726289 2.738613 0 2.738613 
z
"/>
    </defs>
    <g clip-path="url(#p695e7135b0)">
     <use xlink:href="#Ce_0_2930e6ee66" x="125.217579" y="268.130398" style="fill: #39558c; fill-opacity: 0.7; stroke: #39558c; stroke-opacity: 0.7"/>
    </g>
    <g clip-path="url(#p695e7135b0)">
     <use xlink:href="#Ce_0_2930e6ee66" x="122.150153" y="160.105457" style="fill: #39558c; fill-opacity: 0.7; stroke: #39558c; stroke-opacity: 0.7"/>
    </g>
    <g clip-path="url(#p695e7135b0)">
     <use xlink:href="#Ce_0_2930e6ee66" x="266.555612" y="344.314969" style="fill: #39558c; fill-opacity: 0.7; stroke: #39558c; stroke-opacity: 0.7"/>
    </g>
    <g clip-path="url(#p695e7135b0)">
     <use xlink:href="#Ce_0_2930e6ee66" x="289.484175" y="340.597758" style="fill: #39558c; fill-opacity: 0.7; stroke: #39558c; stroke-opacity: 0.7"/>
    </g>
    <g clip-path="url(#p695e7135b0)">
     <use xlink:href="#Ce_0_2930e6ee66" x="289.956733" y="300.574013" style="fill: #39558c; fill-opacity: 0.7; stroke: #39558c; stroke-opacity: 0.7"/>
    </g>
   </g>
   <g id="Poly3DCollection_15">
    <path d="M 125.217579 268.130398 
L 122.150153 160.105457 
z
" clip-path="url(#p695e7135b0)" style="fill: #39558c; fill-opacity: 0.3; stroke: #000000; stroke-opacity: 0.3"/>
    <path d="M 266.555612 344.314969 
L 125.217579 268.130398 
z
" clip-path="url(#p695e7135b0)" style="fill: #39558c; fill-opacity: 0.3; stroke: #000000; stroke-opacity: 0.3"/>
    <path d="M 289.956733 300.574013 
L 122.150153 160.105457 
z
" clip-path="url(#p695e7135b0)" style="fill: #39558c; fill-opacity: 0.3; stroke: #000000; stroke-opacity: 0.3"/>
    <path d="M 266.555612 344.314969 
L 289.484175 340.597758 
z
" clip-path="url(#p695e7135b0)" style="fill: #39558c; fill-opacity: 0.3; stroke: #000000; stroke-opacity: 0.3"/>
    <path d="M 289.956733 300.574013 
L 289.484175 340.597758 
z
" clip-path="url(#p695e7135b0)" style="fill: #39558c; fill-opacity: 0.3; stroke: #000000; stroke-opacity: 0.3"/>
   </g>
   <g id="Path3DCollection_16">
    <defs>
     <path id="Cf_0_24f728c7c9" d="M 0 2.738613 
C 0.726289 2.738613 1.422928 2.450055 1.936492 1.936492 
C 2.450055 1.422928 2.738613 0.726289 2.738613 -0 
C 2.738613 -0.726289 2.450055 -1.422928 1.936492 -1.936492 
C 1.422928 -2.450055 0.726289 -2.738613 0 -2.738613 
C -0.726289 -2.738613 -1.422928 -2.450055 -1.936492 -1.936492 
C -2.450055 -1.422928 -2.738613 -0.726289 -2.738613 0 
C -2.738613 0.726289 -2.450055 1.422928 -1.936492 1.936492 
C -1.422928 2.450055 -0.726289 2.738613 0 2.738613 
z
"/>
    </defs>
    <g clip-path="url(#p695e7135b0)">
     <use xlink:href="#Cf_0_24f728c7c9" x="116.863025" y="272.269593" style="fill: #404688; fill-opacity: 0.7; stroke: #404688; stroke-opacity: 0.7"/>
    </g>
    <g clip-path="url(#p695e7135b0)">
     <use xlink:href="#Cf_0_24f728c7c9" x="113.631022" y="166.164252" style="fill: #404688; fill-opacity: 0.7; stroke: #404688; stroke-opacity: 0.7"/>
    </g>
    <g clip-path="url(#p695e7135b0)">
     <use xlink:href="#Cf_0_24f728c7c9" x="244.716653" y="341.603776" style="fill: #404688; fill-opacity: 0.7; stroke: #404688; stroke-opacity: 0.7"/>
    </g>
    <g clip-path="url(#p695e7135b0)">
     <use xlink:href="#Cf_0_24f728c7c9" x="281.177889" y="335.482772" style="fill: #404688; fill-opacity: 0.7; stroke: #404688; stroke-opacity: 0.7"/>
    </g>
    <g clip-path="url(#p695e7135b0)">
     <use xlink:href="#Cf_0_24f728c7c9" x="281.452331" y="307.294204" style="fill: #404688; fill-opacity: 0.7; stroke: #404688; stroke-opacity: 0.7"/>
    </g>
   </g>
   <g id="Poly3DCollection_16">
    <path d="M 116.863025 272.269593 
L 113.631022 166.164252 
z
" clip-path="url(#p695e7135b0)" style="fill: #404688; fill-opacity: 0.3; stroke: #000000; stroke-opacity: 0.3"/>
    <path d="M 244.716653 341.603776 
L 116.863025 272.269593 
z
" clip-path="url(#p695e7135b0)" style="fill: #404688; fill-opacity: 0.3; stroke: #000000; stroke-opacity: 0.3"/>
    <path d="M 281.452331 307.294204 
L 113.631022 166.164252 
z
" clip-path="url(#p695e7135b0)" style="fill: #404688; fill-opacity: 0.3; stroke: #000000; stroke-opacity: 0.3"/>
    <path d="M 244.716653 341.603776 
L 281.177889 335.482772 
z
" clip-path="url(#p695e7135b0)" style="fill: #404688; fill-opacity: 0.3; stroke: #000000; stroke-opacity: 0.3"/>
    <path d="M 281.452331 307.294204 
L 281.177889 335.482772 
z
" clip-path="url(#p695e7135b0)" style="fill: #404688; fill-opacity: 0.3; stroke: #000000; stroke-opacity: 0.3"/>
   </g>
   <g id="Path3DCollection_17">
    <defs>
     <path id="C10_0_879394ed7b" d="M 0 2.738613 
C 0.726289 2.738613 1.422928 2.450055 1.936492 1.936492 
C 2.450055 1.422928 2.738613 0.726289 2.738613 -0 
C 2.738613 -0.726289 2.450055 -1.422928 1.936492 -1.936492 
C 1.422928 -2.450055 0.726289 -2.738613 0 -2.738613 
C -0.726289 -2.738613 -1.422928 -2.450055 -1.936492 -1.936492 
C -2.450055 -1.422928 -2.738613 -0.726289 -2.738613 0 
C -2.738613 0.726289 -2.450055 1.422928 -1.936492 1.936492 
C -1.422928 2.450055 -0.726289 2.738613 0 2.738613 
z
"/>
    </defs>
    <g clip-path="url(#p695e7135b0)">
     <use xlink:href="#C10_0_879394ed7b" x="108.459941" y="276.432831" style="fill: #453781; fill-opacity: 0.7; stroke: #453781; stroke-opacity: 0.7"/>
    </g>
    <g clip-path="url(#p695e7135b0)">
     <use xlink:href="#C10_0_879394ed7b" x="105.069793" y="172.252986" style="fill: #453781; fill-opacity: 0.7; stroke: #453781; stroke-opacity: 0.7"/>
    </g>
    <g clip-path="url(#p695e7135b0)">
     <use xlink:href="#C10_0_879394ed7b" x="227.388217" y="341.320446" style="fill: #453781; fill-opacity: 0.7; stroke: #453781; stroke-opacity: 0.7"/>
    </g>
    <g clip-path="url(#p695e7135b0)">
     <use xlink:href="#C10_0_879394ed7b" x="272.783745" y="329.752345" style="fill: #453781; fill-opacity: 0.7; stroke: #453781; stroke-opacity: 0.7"/>
    </g>
    <g clip-path="url(#p695e7135b0)">
     <use xlink:href="#C10_0_879394ed7b" x="272.903831" y="314.049242" style="fill: #453781; fill-opacity: 0.7; stroke: #453781; stroke-opacity: 0.7"/>
    </g>
   </g>
   <g id="Poly3DCollection_17">
    <path d="M 108.459941 276.432831 
L 105.069793 172.252986 
z
" clip-path="url(#p695e7135b0)" style="fill: #453781; fill-opacity: 0.3; stroke: #000000; stroke-opacity: 0.3"/>
    <path d="M 227.388217 341.320446 
L 108.459941 276.432831 
z
" clip-path="url(#p695e7135b0)" style="fill: #453781; fill-opacity: 0.3; stroke: #000000; stroke-opacity: 0.3"/>
    <path d="M 272.903831 314.049242 
L 105.069793 172.252986 
z
" clip-path="url(#p695e7135b0)" style="fill: #453781; fill-opacity: 0.3; stroke: #000000; stroke-opacity: 0.3"/>
    <path d="M 227.388217 341.320446 
L 272.783745 329.752345 
z
" clip-path="url(#p695e7135b0)" style="fill: #453781; fill-opacity: 0.3; stroke: #000000; stroke-opacity: 0.3"/>
    <path d="M 272.903831 314.049242 
L 272.783745 329.752345 
z
" clip-path="url(#p695e7135b0)" style="fill: #453781; fill-opacity: 0.3; stroke: #000000; stroke-opacity: 0.3"/>
   </g>
   <g id="Path3DCollection_18">
    <defs>
     <path id="C11_0_69bac74c2a" d="M 0 2.738613 
C 0.726289 2.738613 1.422928 2.450055 1.936492 1.936492 
C 2.450055 1.422928 2.738613 0.726289 2.738613 -0 
C 2.738613 -0.726289 2.450055 -1.422928 1.936492 -1.936492 
C 1.422928 -2.450055 0.726289 -2.738613 0 -2.738613 
C -0.726289 -2.738613 -1.422928 -2.450055 -1.936492 -1.936492 
C -2.450055 -1.422928 -2.738613 -0.726289 -2.738613 0 
C -2.738613 0.726289 -2.450055 1.422928 -1.936492 1.936492 
C -1.422928 2.450055 -0.726289 2.738613 0 2.738613 
z
"/>
    </defs>
    <g clip-path="url(#p695e7135b0)">
     <use xlink:href="#C11_0_69bac74c2a" x="100.007905" y="280.620324" style="fill: #482576; fill-opacity: 0.7; stroke: #482576; stroke-opacity: 0.7"/>
    </g>
    <g clip-path="url(#p695e7135b0)">
     <use xlink:href="#C11_0_69bac74c2a" x="96.466153" y="178.371884" style="fill: #482576; fill-opacity: 0.7; stroke: #482576; stroke-opacity: 0.7"/>
    </g>
    <g clip-path="url(#p695e7135b0)">
     <use xlink:href="#C11_0_69bac74c2a" x="205.663014" y="338.620019" style="fill: #482576; fill-opacity: 0.7; stroke: #482576; stroke-opacity: 0.7"/>
    </g>
    <g clip-path="url(#p695e7135b0)">
     <use xlink:href="#C11_0_69bac74c2a" x="264.312546" y="320.540212" style="fill: #482576; fill-opacity: 0.7; stroke: #482576; stroke-opacity: 0.7"/>
    </g>
   </g>
   <g id="Poly3DCollection_18">
    <path d="M 100.007905 280.620324 
L 96.466153 178.371884 
z
" clip-path="url(#p695e7135b0)" style="fill: #482576; fill-opacity: 0.3; stroke: #000000; stroke-opacity: 0.3"/>
    <path d="M 205.663014 338.620019 
L 100.007905 280.620324 
z
" clip-path="url(#p695e7135b0)" style="fill: #482576; fill-opacity: 0.3; stroke: #000000; stroke-opacity: 0.3"/>
    <path d="M 96.466153 178.371884 
L 264.312546 320.540212 
z
" clip-path="url(#p695e7135b0)" style="fill: #482576; fill-opacity: 0.3; stroke: #000000; stroke-opacity: 0.3"/>
    <path d="M 205.663014 338.620019 
L 264.312546 320.540212 
z
" clip-path="url(#p695e7135b0)" style="fill: #482576; fill-opacity: 0.3; stroke: #000000; stroke-opacity: 0.3"/>
   </g>
   <g id="Path3DCollection_19">
    <defs>
     <path id="C12_0_4e78a87257" d="M 0 2.738613 
C 0.726289 2.738613 1.422928 2.450055 1.936492 1.936492 
C 2.450055 1.422928 2.738613 0.726289 2.738613 -0 
C 2.738613 -0.726289 2.450055 -1.422928 1.936492 -1.936492 
C 1.422928 -2.450055 0.726289 -2.738613 0 -2.738613 
C -0.726289 -2.738613 -1.422928 -2.450055 -1.936492 -1.936492 
C -2.450055 -1.422928 -2.738613 -0.726289 -2.738613 0 
C -2.738613 0.726289 -2.450055 1.422928 -1.936492 1.936492 
C -1.422928 2.450055 -0.726289 2.738613 0 2.738613 
z
"/>
    </defs>
    <g clip-path="url(#p695e7135b0)">
     <use xlink:href="#C12_0_4e78a87257" x="91.506486" y="284.832282" style="fill: #481467; fill-opacity: 0.7; stroke: #481467; stroke-opacity: 0.7"/>
    </g>
    <g clip-path="url(#p695e7135b0)">
     <use xlink:href="#C12_0_4e78a87257" x="87.819786" y="184.521168" style="fill: #481467; fill-opacity: 0.7; stroke: #481467; stroke-opacity: 0.7"/>
    </g>
    <g clip-path="url(#p695e7135b0)">
     <use xlink:href="#C12_0_4e78a87257" x="188.376325" y="338.337813" style="fill: #481467; fill-opacity: 0.7; stroke: #481467; stroke-opacity: 0.7"/>
    </g>
    <g clip-path="url(#p695e7135b0)">
     <use xlink:href="#C12_0_4e78a87257" x="246.427418" y="317.440971" style="fill: #481467; fill-opacity: 0.7; stroke: #481467; stroke-opacity: 0.7"/>
    </g>
   </g>
   <g id="Poly3DCollection_19">
    <path d="M 91.506486 284.832282 
L 87.819786 184.521168 
z
" clip-path="url(#p695e7135b0)" style="fill: #481467; fill-opacity: 0.3; stroke: #000000; stroke-opacity: 0.3"/>
    <path d="M 188.376325 338.337813 
L 91.506486 284.832282 
z
" clip-path="url(#p695e7135b0)" style="fill: #481467; fill-opacity: 0.3; stroke: #000000; stroke-opacity: 0.3"/>
    <path d="M 87.819786 184.521168 
L 246.427418 317.440971 
z
" clip-path="url(#p695e7135b0)" style="fill: #481467; fill-opacity: 0.3; stroke: #000000; stroke-opacity: 0.3"/>
    <path d="M 188.376325 338.337813 
L 246.427418 317.440971 
z
" clip-path="url(#p695e7135b0)" style="fill: #481467; fill-opacity: 0.3; stroke: #000000; stroke-opacity: 0.3"/>
   </g>
   <g id="Path3DCollection_20">
    <defs>
     <path id="C13_0_80eb6679f5" d="M 0 2.738613 
C 0.726289 2.738613 1.422928 2.450055 1.936492 1.936492 
C 2.450055 1.422928 2.738613 0.726289 2.738613 -0 
C 2.738613 -0.726289 2.450055 -1.422928 1.936492 -1.936492 
C 1.422928 -2.450055 0.726289 -2.738613 0 -2.738613 
C -0.726289 -2.738613 -1.422928 -2.450055 -1.936492 -1.936492 
C -2.450055 -1.422928 -2.738613 -0.726289 -2.738613 0 
C -2.738613 0.726289 -2.450055 1.422928 -1.936492 1.936492 
C -1.422928 2.450055 -0.726289 2.738613 0 2.738613 
z
"/>
    </defs>
    <g clip-path="url(#p695e7135b0)">
     <use xlink:href="#C13_0_80eb6679f5" x="82.95525" y="289.068921" style="fill: #440154; fill-opacity: 0.7; stroke: #440154; stroke-opacity: 0.7"/>
    </g>
    <g clip-path="url(#p695e7135b0)">
     <use xlink:href="#C13_0_80eb6679f5" x="79.130373" y="190.701066" style="fill: #440154; fill-opacity: 0.7; stroke: #440154; stroke-opacity: 0.7"/>
    </g>
    <g clip-path="url(#p695e7135b0)">
     <use xlink:href="#C13_0_80eb6679f5" x="171.09614" y="338.055713" style="fill: #440154; fill-opacity: 0.7; stroke: #440154; stroke-opacity: 0.7"/>
    </g>
    <g clip-path="url(#p695e7135b0)">
     <use xlink:href="#C13_0_80eb6679f5" x="228.523629" y="314.088161" style="fill: #440154; fill-opacity: 0.7; stroke: #440154; stroke-opacity: 0.7"/>
    </g>
   </g>
   <g id="Poly3DCollection_20">
    <path d="M 82.95525 289.068921 
L 79.130373 190.701066 
z
" clip-path="url(#p695e7135b0)" style="fill: #440154; fill-opacity: 0.3; stroke: #000000; stroke-opacity: 0.3"/>
    <path d="M 171.09614 338.055713 
L 82.95525 289.068921 
z
" clip-path="url(#p695e7135b0)" style="fill: #440154; fill-opacity: 0.3; stroke: #000000; stroke-opacity: 0.3"/>
    <path d="M 79.130373 190.701066 
L 228.523629 314.088161 
z
" clip-path="url(#p695e7135b0)" style="fill: #440154; fill-opacity: 0.3; stroke: #000000; stroke-opacity: 0.3"/>
    <path d="M 171.09614 338.055713 
L 228.523629 314.088161 
z
" clip-path="url(#p695e7135b0)" style="fill: #440154; fill-opacity: 0.3; stroke: #000000; stroke-opacity: 0.3"/>
   </g>
  </g>
 </g>
 <defs>
  <clipPath id="p695e7135b0">
   <rect x="14.092013" y="7.2" width="443.52" height="443.52"/>
  </clipPath>
 </defs>
</svg>
